<?xml version="1.0" encoding="UTF-8" standalone="no"?>
<!-- Created with Inkscape (http://www.inkscape.org/) -->

<svg
   xmlns:dc="http://purl.org/dc/elements/1.1/"
   xmlns:cc="http://creativecommons.org/ns#"
   xmlns:rdf="http://www.w3.org/1999/02/22-rdf-syntax-ns#"
   xmlns:svg="http://www.w3.org/2000/svg"
   xmlns="http://www.w3.org/2000/svg"
   xmlns:sodipodi="http://sodipodi.sourceforge.net/DTD/sodipodi-0.dtd"
   xmlns:inkscape="http://www.inkscape.org/namespaces/inkscape"
   width="565.59442"
   height="448.49576"
   id="svg5472"
   version="1.1"
   inkscape:version="0.48.4 r9939"
   sodipodi:docname="New document 31">
  <defs
     id="defs5474" />
  <sodipodi:namedview
     id="base"
     pagecolor="#ffffff"
     bordercolor="#666666"
     borderopacity="1.0"
     inkscape:pageopacity="0.0"
     inkscape:pageshadow="2"
     inkscape:zoom="0.35"
     inkscape:cx="346.36975"
     inkscape:cy="180.77773"
     inkscape:document-units="px"
     inkscape:current-layer="layer1"
     showgrid="false"
     fit-margin-top="0"
     fit-margin-left="0"
     fit-margin-right="0"
     fit-margin-bottom="0"
     inkscape:window-width="472"
     inkscape:window-height="415"
     inkscape:window-x="472"
     inkscape:window-y="24"
     inkscape:window-maximized="0" />
  <metadata
     id="metadata5477">
    <rdf:RDF>
      <cc:Work
         rdf:about="">
        <dc:format>image/svg+xml</dc:format>
        <dc:type
           rdf:resource="http://purl.org/dc/dcmitype/StillImage" />
        <dc:title></dc:title>
      </cc:Work>
    </rdf:RDF>
  </metadata>
  <g
     inkscape:label="Layer 1"
     inkscape:groupmode="layer"
     id="layer1"
     transform="translate(-28.630251,-264.64415)">
    <g
       transform="matrix(24.995878,0,0,24.995878,-4576.6426,-16045.492)"
       id="g5423">
      <path
         style="fill:#d40000;fill-opacity:1;stroke:#ffffff;stroke-width:0;stroke-linecap:butt;stroke-linejoin:miter;stroke-miterlimit:4;stroke-opacity:1;stroke-dasharray:none"
         d="m 190.51379,661.12665 c 0,0 -0.58547,-3.76331 0.857,-5.79247 1.44245,-2.02915 3.04443,-1.98199 4.33481,-2.01019 1.29039,-0.0282 3.0768,-0.0835 3.22203,0.063 0.14523,0.14646 -0.12782,0.51108 -0.12782,0.51108 0,0 -1.27107,-0.29486 -1.97871,0.4247 -0.70765,0.71955 -1.89568,2.01826 -0.47893,3.94281 1.41676,1.92457 1.41676,1.92457 1.41676,1.92457 l -1.99408,3.528 z"
         id="path5425"
         inkscape:connector-curvature="0" />
      <path
         style="fill:#008033;fill-opacity:1;stroke:#ffffff;stroke-width:0;stroke-linecap:butt;stroke-linejoin:miter;stroke-miterlimit:4;stroke-opacity:1;stroke-dasharray:none"
         d="m 191.17439,666.7505 c 0,0 -1.82102,-3.43196 -3.58642,-2.50818 -1.7654,0.92376 -1.79347,4.37482 -1.79347,4.37482 l -0.41589,-0.0209 c 0,0 -0.74141,-4.887 0.014,-6.81134 0.75538,-1.92436 2.34128,-3.9125 6.64185,-1.0131 4.30059,2.89941 4.66509,4.25854 4.66509,4.25854 z"
         id="path5427"
         inkscape:connector-curvature="0" />
      <path
         inkscape:connector-curvature="0"
         id="path5429"
         d="m 199.36647,664.55348 c 0,0 0.31618,-3.66077 2.3069,-3.74434 1.99073,-0.0836 3.55149,2.27916 3.55149,2.27916 l 0.39062,-0.36965 c 0,0 -0.32146,-2.89879 -1.87221,-4.26586 -3.01805,-2.66062 -5.62915,0.10567 -7.52729,1.8598 -1.41057,1.30352 -1.81828,5.46751 -1.81828,5.46751 z"
         style="fill:#2c5aa0;fill-opacity:1;stroke:#ffffff;stroke-width:0;stroke-linecap:butt;stroke-linejoin:miter;stroke-miterlimit:4;stroke-opacity:1;stroke-dasharray:none"
         sodipodi:nodetypes="csccsacc" />
      <path
         style="fill:#d4aa00;fill-opacity:1;stroke:#ffffff;stroke-width:0;stroke-linecap:butt;stroke-linejoin:miter;stroke-miterlimit:4;stroke-opacity:1;stroke-dasharray:none"
         d="m 191.41767,667.77917 c -0.14671,-0.4074 -0.60762,-1.14816 -0.60762,-1.14816 0,0 2.48742,-1.20788 3.81781,-1.54835 1.52353,-0.38987 4.68627,-0.54504 4.68627,-0.54504 0,0 0.0181,1.06193 0.0885,1.58708 0.0625,0.46682 0.29567,1.38168 0.29567,1.38168 0,0 -2.8011,0.11251 -4.14331,0.47435 -1.31932,0.35509 -3.75474,1.64381 -3.75474,1.64381 -0.0181,-0.62561 -0.16974,-1.25431 -0.38258,-1.84536 z"
         id="path5431"
         inkscape:connector-curvature="0"
         sodipodi:nodetypes="acacacaca" />
      <path
         sodipodi:type="arc"
         style="color:#000000;fill:#d4aa00;fill-opacity:1;fill-rule:nonzero;stroke:#ffffff;stroke-width:0;stroke-linecap:butt;stroke-linejoin:miter;stroke-miterlimit:4;stroke-opacity:1;stroke-dasharray:none;stroke-dashoffset:0;marker:none;visibility:visible;display:inline;overflow:visible;enable-background:accumulate"
         id="path5433"
         sodipodi:cx="-559.38605"
         sodipodi:cy="446.58365"
         sodipodi:rx="30.333534"
         sodipodi:ry="30.333534"
         d="m -529.05251,446.58365 c 0,16.75275 -13.58079,30.33353 -30.33354,30.33353 -16.75275,0 -30.33353,-13.58078 -30.33353,-30.33353 0,-16.75275 13.58078,-30.33354 30.33353,-30.33354 16.75275,0 30.33354,13.58079 30.33354,30.33354 z"
         transform="matrix(0.03917125,-0.01050524,0.01050524,0.03917125,216.82451,630.37637)" />
      <path
         transform="matrix(0.03917125,-0.01050524,0.01050524,0.03917125,222.85644,640.29657)"
         d="m -529.05251,446.58365 c 0,16.75275 -13.58079,30.33353 -30.33354,30.33353 -16.75275,0 -30.33353,-13.58078 -30.33353,-30.33353 0,-16.75275 13.58078,-30.33354 30.33353,-30.33354 16.75275,0 30.33354,13.58079 30.33354,30.33354 z"
         sodipodi:ry="30.333534"
         sodipodi:rx="30.333534"
         sodipodi:cy="446.58365"
         sodipodi:cx="-559.38605"
         id="path5435"
         style="color:#000000;fill:#d4aa00;fill-opacity:1;fill-rule:nonzero;stroke:#ffffff;stroke-width:0;stroke-linecap:butt;stroke-linejoin:miter;stroke-miterlimit:4;stroke-opacity:1;stroke-dasharray:none;stroke-dashoffset:0;marker:none;visibility:visible;display:inline;overflow:visible;enable-background:accumulate"
         sodipodi:type="arc" />
      <path
         sodipodi:type="arc"
         style="color:#000000;fill:#d4aa00;fill-opacity:1;fill-rule:nonzero;stroke:#ffffff;stroke-width:0;stroke-linecap:butt;stroke-linejoin:miter;stroke-miterlimit:4;stroke-opacity:1;stroke-dasharray:none;stroke-dashoffset:0;marker:none;visibility:visible;display:inline;overflow:visible;enable-background:accumulate"
         id="path5437"
         sodipodi:cx="-559.38605"
         sodipodi:cy="446.58365"
         sodipodi:rx="30.333534"
         sodipodi:ry="30.333534"
         d="m -529.05251,446.58365 c 0,16.75275 -13.58079,30.33353 -30.33354,30.33353 -16.75275,0 -30.33353,-13.58078 -30.33353,-30.33353 0,-16.75275 13.58078,-30.33354 30.33353,-30.33354 16.75275,0 30.33354,13.58079 30.33354,30.33354 z"
         transform="matrix(0.03917125,-0.01050524,0.01050524,0.03917125,202.6945,645.85359)" />
    </g>
  </g>
</svg>
