<?xml version="1.0" encoding="UTF-8" standalone="no"?>
<!DOCTYPE svg PUBLIC "-//W3C//DTD SVG 1.1//EN" "http://www.w3.org/Graphics/SVG/1.1/DTD/svg11.dtd">
<svg width="100%" height="100%" viewBox="0 0 16 16" version="1.1" xmlns="http://www.w3.org/2000/svg" xmlns:xlink="http://www.w3.org/1999/xlink" xml:space="preserve" xmlns:serif="http://www.serif.com/" style="fill-rule:evenodd;clip-rule:evenodd;stroke-linejoin:round;stroke-miterlimit:2;">
    <path d="M1,9C1,12.866 4.134,16 8,16C11.866,16 15,12.866 15,9C15,5.134 11.866,2 8,2C4.134,2 1,5.134 1,9ZM8,3C11.314,3 14,5.686 14,9C14,12.314 11.314,15 8,15C4.686,15 2,12.314 2,9C2,5.686 4.686,3 8,3Z" style="fill:white;fill-rule:nonzero;"/>
    <rect x="6" y="0" width="4" height="1" style="fill:white;"/>
    <g transform="matrix(0.7071,-0.7071,0.7071,0.7071,2.3329,10.632)">
        <rect x="13.5" y="1.5" width="1" height="2" style="fill:white;"/>
    </g>
    <path d="M8,4L8,9L13,9C13,6.239 10.761,4 8,4Z" style="fill:white;fill-rule:nonzero;"/>
</svg>
