<?xml version="1.0" encoding="UTF-8" standalone="no"?>
<!-- Created with Inkscape (http://www.inkscape.org/) -->

<svg
   xmlns:dc="http://purl.org/dc/elements/1.1/"
   xmlns:cc="http://creativecommons.org/ns#"
   xmlns:rdf="http://www.w3.org/1999/02/22-rdf-syntax-ns#"
   xmlns:svg="http://www.w3.org/2000/svg"
   xmlns="http://www.w3.org/2000/svg"
   xmlns:sodipodi="http://sodipodi.sourceforge.net/DTD/sodipodi-0.dtd"
   xmlns:inkscape="http://www.inkscape.org/namespaces/inkscape"
   width="810.14233"
   height="544.79028"
   id="svg4281"
   version="1.1"
   inkscape:version="0.48.4 r9939"
   sodipodi:docname="Benelux vlag.svg">
  <defs
     id="defs4283" />
  <sodipodi:namedview
     id="base"
     pagecolor="#ffffff"
     bordercolor="#666666"
     borderopacity="1.0"
     inkscape:pageopacity="0.0"
     inkscape:pageshadow="2"
     inkscape:zoom="1.4"
     inkscape:cx="114.94338"
     inkscape:cy="271.0954"
     inkscape:document-units="px"
     inkscape:current-layer="layer1"
     showgrid="false"
     fit-margin-top="0"
     fit-margin-left="0"
     fit-margin-right="0"
     fit-margin-bottom="0"
     inkscape:window-width="1600"
     inkscape:window-height="837"
     inkscape:window-x="-8"
     inkscape:window-y="-8"
     inkscape:window-maximized="1"
     showguides="true"
     inkscape:guide-bbox="true" />
  <metadata
     id="metadata4286">
    <rdf:RDF>
      <cc:Work
         rdf:about="">
        <dc:format>image/svg+xml</dc:format>
        <dc:type
           rdf:resource="http://purl.org/dc/dcmitype/StillImage" />
        <dc:title />
      </cc:Work>
    </rdf:RDF>
  </metadata>
  <g
     inkscape:label="Laag 1"
     inkscape:groupmode="layer"
     id="layer1"
     transform="translate(93.642593,-234.25932)">
    <rect
       style="fill:#ae1c28;fill-opacity:1;stroke:none"
       id="rect3012"
       width="810.14233"
       height="181.82751"
       x="-93.642593"
       y="234.25932" />
    <rect
       style="fill:#ffffff;fill-opacity:1;stroke:none"
       id="rect3782"
       width="810.14233"
       height="182.83762"
       x="-93.642593"
       y="416.08682" />
    <rect
       style="fill:#21468b;fill-opacity:1;stroke:none"
       id="rect3784"
       width="810.14233"
       height="178.797"
       x="-93.642593"
       y="598.92444" />
    <rect
       style="fill:#000000;fill-opacity:1;stroke:none"
       id="rect3786"
       width="569.72601"
       height="182.83762"
       x="28.585897"
       y="416.08682" />
    <path
       style="fill:#ffcc00;fill-opacity:1;stroke:#000000;stroke-width:2.98624492;stroke-linecap:butt;stroke-linejoin:miter;stroke-miterlimit:4;stroke-opacity:1;stroke-dasharray:none"
       d="m 215.20403,376.75194 c -10.29474,-18.98859 -26.3316,-33.007 -47.93373,-42.20823 -7.91108,-18.71961 -20.24796,-32.40441 -35.02849,-43.30931 5.35406,-11.22147 18.02735,-24.05142 -1.8436,-29.72928 -11.09087,-0.67782 -12.40632,10.5035 -12.53649,23.12277 -2.74863,-0.57117 -4.11283,-6.19505 -5.8996,-10.27679 -2.22447,-9.89381 -7.03257,-15.05026 -15.854926,-12.84598 -12.48249,5.08307 -4.40646,16.45949 0.73741,17.25033 3.259876,6.76824 0.97422,10.13951 -4.79338,11.37788 -10.15246,-11.08779 -27.93455,-6.17715 -27.28533,0 3.62365,17.52455 8.9282,25.89546 18.43605,11.37786 5.53596,-1.3495 17.711106,8.32709 2.94976,13.21302 -6.67058,1.69907 -12.98229,3.58189 -7.74314,11.37786 7.07319,14.87092 17.55861,9.02236 28.022796,3.30324 l 9.95549,5.87246 c -5.15993,2.98604 -10.39367,5.94268 -12.16786,10.27679 -3.20687,14.28264 9.9647,24.62891 18.06738,8.07462 24.51457,6.41745 20.35627,16.39819 -0.36874,12.84598 8.03322,7.59145 17.18774,11.35609 27.65405,10.6438 -1.9731,13.8361 23.8077,21.04182 37.24082,31.19739 l 25.44175,-9.1757 z"
       id="path3026"
       inkscape:connector-curvature="0"
       sodipodi:nodetypes="cccccccccccccccccccccc" />
    <path
       style="fill:#ffcc00;fill-opacity:1;stroke:#000000;stroke-width:2.98624492;stroke-linecap:butt;stroke-linejoin:miter;stroke-miterlimit:4;stroke-opacity:1;stroke-dasharray:none"
       d="m 239.05099,388.60715 c -21.67042,0.52296 -65.82992,29.68164 -83.86416,44.67443 -20.3487,-1.4698 -38.19611,3.26991 -54.66252,11.43819 -7.619756,-9.83849 -13.360866,-26.89983 -27.455346,-11.84517 -5.63605,9.53231 3.77908,15.76956 15.01928,21.60729 -1.75776,2.17954 -7.41199,0.83969 -11.87694,0.57401 -9.86752,-2.51285 -16.66484,-0.58534 -18.69162,8.24128 -1.10891,13.37926 12.73954,11.37296 15.78012,7.16797 7.53844,0.17695 9.52062,3.73347 8.01413,9.41196 -14.53155,3.97936 -18.19798,21.98217 -12.37263,24.20722 17.3345,4.73169 27.23509,3.82138 18.54752,-11.19693 1.30201,-5.52337 15.487146,-11.93715 13.168416,3.37449 -1.503496,6.68851 -2.679636,13.14194 6.67649,12.02894 16.52263,0.46801 16.04052,-11.48659 15.66469,-23.36363 l 9.77247,-6.16952 c 0.33393,5.93185 0.60798,11.91586 3.68418,15.45519 11.33444,9.32163 26.57107,2.32749 15.4227,-12.36769 16.86231,-18.83904 23.91338,-10.62402 11.33496,6.15216 10.43994,-3.68456 17.96195,-10.09931 22.07012,-19.70789 -3.15716,24.18513 38.23037,2.06625 64.37523,-17.33591 8.67055,-8.56304 11.56771,-20.95732 11.92471,-35.03728 z"
       id="path3026-1"
       inkscape:connector-curvature="0"
       sodipodi:nodetypes="cccccccccccccccccccccc" />
    <path
       style="fill:#ffcc00;fill-opacity:1;stroke:#000000;stroke-width:2.98624492;stroke-linecap:butt;stroke-linejoin:miter;stroke-miterlimit:4;stroke-opacity:1;stroke-dasharray:none"
       d="m 334.80686,496.99688 c -8.93677,6.51873 -26.61395,8.45833 -54.2308,5.19057 -36.87252,-4.29041 -69.1894,0.82453 -92.81816,23.87656 -16.85992,16.07809 -33.64433,28.92362 -49.53776,3.63339 0.85684,15.16245 7.13687,27.83533 21.37946,36.85296 11.28874,10.93551 10.75296,23.18898 8.86465,30.62436 12.3225,-2.61584 14.91895,-16.05213 19.29365,-27.51003 28.24337,6.44164 67.40836,55.827 4.17161,65.92015 -1.94262,-12.63464 -6.24903,-20.34957 -13.59758,-21.7328 -15.44454,4.19077 -12.15652,12.59204 -13.27396,20.00307 -7.22357,-12.98959 -26.68025,14.50529 -11.43036,20.37003 1.62864,2.38563 3.37745,4.70293 1.65926,8.99221 -1.98948,6.36288 3.43405,10.70319 9.03366,10.46031 3.31438,1.60038 5.64321,3.48102 5.53082,6.05594 -1.77268,6.86776 6.39629,8.49654 12.53649,11.19432 7.68539,4.71877 11.41763,0.25596 14.74886,-5.13833 1.5276,4.60066 3.50888,9.03501 14.19575,10.27676 6.62104,1.4687 10.40127,-0.9186 11.61471,-6.79001 21.97396,-6.44463 32.94788,-21.90653 47.1963,-34.68415 7.40415,6.54927 15.64148,9.78117 24.51994,10.46032 -8.76216,-13.87789 -12.58639,-26.60892 -6.63698,-37.06983 4.79895,-8.64784 3.27895,-16.3781 1.29052,-24.04033 13.41821,3.01344 21.28135,-4.707 26.36353,-17.80087 -11.16635,1.58807 -20.08002,0.5134 -23.41377,-7.15707 -30.41912,-33.95194 46.10256,-57.88145 85.17454,-46.97959 l -6.26826,-26.42602 z"
       id="path3825"
       inkscape:connector-curvature="0"
       sodipodi:nodetypes="ccccccccccccccccccccccccccc" />
    <path
       style="fill:#ffcc00;fill-opacity:1;stroke:#000000;stroke-width:2.98624492;stroke-linecap:butt;stroke-linejoin:miter;stroke-miterlimit:4;stroke-opacity:1;stroke-dasharray:none"
       d="m 246.17661,428.86992 c 7.13562,41.06839 41.82999,59.62253 87.75556,69.00128 30.37807,11.13716 45.1913,29.73413 49.03988,53.5861 1.19537,11.54882 -6.16215,19.90499 -12.5365,28.62818 -14.1645,11.20778 -18.12705,23.05024 -16.59244,35.23468 -0.69359,32.97499 -17.11234,18.65849 -25.44176,11.74494 4.87834,25.12527 32.02987,31.38662 44.24651,8.80866 27.30626,12.56964 34.43972,31.69873 6.26826,36.33582 28.05421,4.86501 46.61237,-14.28368 20.27966,-46.61258 43.27722,-5.52275 58.83608,39.1969 14.01139,63.12881 -10.77636,5.92977 -21.17818,7.75853 -30.97255,2.93621 -6.70526,-10.14988 -13.96987,-16.58798 -23.59814,-7.34055 -10.77076,7.92684 -4.89023,15.06434 4.79337,22.02163 l -4.79337,6.97357 c -14.58453,-0.26356 -14.79299,21.30025 5.53081,22.75572 5.91374,1.88326 7.72784,5.58017 4.79338,11.37793 7.95637,13.84946 16.88003,6.81449 25.81044,-0.36706 -3.13308,7.06311 0.0827,11.5239 13.64269,11.74495 21.18101,-3.82029 21.74548,-11.61247 12.53652,-21.28771 16.28963,7.45313 31.73689,13.67647 33.55359,0 l 1.47489,-10.27675 c 16.98878,2.50799 26.60904,-8.31989 32.81616,-25.32497 l 11.79908,3.6703 c -9.94642,-16.03039 -9.77884,-23.63207 -0.73702,-23.8383 4.68273,-0.10679 11.7457,11.67974 21.01666,5.48692 -12.14873,-13.91322 -12.81055,-27.06406 -10.32418,-40.00605 5.15562,-16.97347 2.05022,-18.87119 1.8436,-26.05898 9.05166,1.47508 15.61756,-3.64808 21.75454,-9.90979 13.07702,-14.96369 15.53272,-10.29276 22.49197,-13.94708 -26.333,-4.4038 -56.86145,1.21509 -69.31953,-36.33577 -2.00961,-22.39684 -18.05261,-38.58523 -37.60953,-53.21908 12.03141,-1.33408 23.61144,1.82496 34.65976,10.2768 11.81907,8.81446 23.71751,16.68099 36.50337,13.94707 13.61817,4.42875 21.98464,14.08506 19.91093,34.13359 18.13253,-11.59532 26.36159,-24.15242 4.42465,-39.63903 22.84708,-24.32596 15.73105,-47.84586 2.58106,-71.20343 16.78228,-25.78531 -1.36387,-47.35633 -15.855,-69.36831 -12.72832,-26.45241 -10.82038,-47.30132 14.74883,-59.09152 16.13974,-2.1982 26.20575,11.62704 11.06163,25.69197 -13.30182,14.62498 -17.43535,29.54434 -0.36871,45.14446 -1.83849,-12.72364 0.16506,-25.4473 11.06162,-38.17093 24.20205,-26.18859 26.788,-47.21313 1.84359,-61.66071 18.96902,4.06494 24.80728,-7.11902 26.1792,-23.48982 -6.00109,12.64383 -17.72614,13.89226 -33.55361,6.97354 -11.11761,-5.24254 -20.21393,-3.77851 -28.39151,0.73405 5.63472,-18.52165 18.57916,-21.97128 37.97826,-12.11192 -12.10626,-33.58663 -63.07682,-10.46341 -71.53186,31.93146 -44.82714,-112.90797 -148.75178,-25.47217 -100.66081,24.22385 25.98666,22.20819 45.15458,57.8018 21.75454,62.39477 11.13383,1.76297 21.38869,1.42604 27.65406,-8.44165 26.92599,30.64246 9.73105,77.35239 -28.02279,49.91581 -12.99739,-14.28106 -17.30982,-28.90791 -18.06733,-43.67632 -5.354,8.94188 -7.11069,17.72501 -7.00569,26.42602 -35.36636,-17.84432 -48.92561,5.61843 -44.24653,25.32491 11.56508,-22.20522 28.78527,-21.03092 44.61524,2.20219 29.79512,39.19151 113.14657,16.05417 77.80012,-51.0169 l -13.27395,-34.86767 c 1.49529,-19.13879 -5.06014,-32.85651 -20.27965,-40.74011 18.42455,-9.34565 14.98433,-39.59512 -4.42466,-41.10715 10.06593,11.74306 5.90275,31.16849 -7.74313,21.65465 -8.68561,-2.56167 -17.15056,-4.28879 -21.0171,11.37787 -8.68122,-64.79675 75.95366,-61.10767 78.90627,25.69197 -10.10729,23.97917 -8.01419,47.95833 11.06164,71.9375 l 16.22371,22.38872 c -1.63448,15.10111 10.39405,25.66877 23.22942,35.96875 12.00408,29.85329 -0.69219,69.11099 -36.87208,47.71365 -14.62441,-9.29997 -30.33423,-17.24934 -52.7271,-16.88329 C 363.54635,475.29928 330.53157,426.66121 313.69288,378.44243 l -49.08025,17.02794 z"
       id="path3827"
       inkscape:connector-curvature="0"
       sodipodi:nodetypes="cccccccccccccccccccccccscccccccccccccccccccccccccccccccccccccccccccccc" />
    <path
       style="fill:#ffffff;fill-opacity:1;stroke:#000000;stroke-width:2.98624491999999990;stroke-linecap:butt;stroke-linejoin:miter;stroke-miterlimit:4;stroke-opacity:1;stroke-dasharray:none"
       d="m 67.172584,288.72563 c -10.34015,-0.34972 -17.14148,3.05795 -17.07752,13.75498 4.97647,-5.10467 11.42709,-4.63331 18.12037,-3.24409 4.76556,-2.78435 2.56715,-10.20353 -1.04285,-10.51089 z"
       id="path3829"
       inkscape:connector-curvature="0"
       sodipodi:nodetypes="cccc" />
    <path
       style="fill:#ffffff;fill-opacity:1;stroke:#000000;stroke-width:2.98624491999999990;stroke-linecap:butt;stroke-linejoin:miter;stroke-miterlimit:4;stroke-opacity:1;stroke-dasharray:none"
       d="m 79.955344,320.45104 c -9.79825,3.30695 -14.95278,8.88552 -11.09865,18.87113 2.84529,-6.52494 9.04763,-8.35105 15.8026,-9.40372 3.471,-4.2799 -1.21747,-10.4486 -4.70395,-9.46741 z"
       id="path3829-7"
       inkscape:connector-curvature="0"
       sodipodi:nodetypes="cccc" />
    <path
       style="fill:#ffffff;fill-opacity:1;stroke:#000000;stroke-width:2.98624491999999990;stroke-linecap:butt;stroke-linejoin:miter;stroke-miterlimit:4;stroke-opacity:1;stroke-dasharray:none"
       d="m 99.040384,260.3006 c -7.29563,-7.30226 -14.59667,-9.45412 -21.90807,-1.61424 7.13831,-0.32869 11.51543,4.4113 15.4381,9.98562 5.3885,1.21867 8.889576,-5.68695 6.46997,-8.37138 z"
       id="path3829-4"
       inkscape:connector-curvature="0"
       sodipodi:nodetypes="cccc" />
    <path
       style="fill:#ffffff;fill-opacity:1;stroke:#000000;stroke-width:2.98624491999999990;stroke-linecap:butt;stroke-linejoin:miter;stroke-miterlimit:4;stroke-opacity:1;stroke-dasharray:none"
       d="m 135.87755,263.81545 c -3.31316,-9.75627 -8.91264,-14.89232 -18.94787,-11.06509 6.55239,2.83824 8.3812,9.0138 9.43243,15.73871 4.29646,3.45903 10.49791,-1.20219 9.51544,-4.67362 z"
       id="path3829-0"
       inkscape:connector-curvature="0"
       sodipodi:nodetypes="cccc" />
    <path
       style="fill:#ffffff;fill-opacity:1;stroke:#000000;stroke-width:2.98624491999999990;stroke-linecap:butt;stroke-linejoin:miter;stroke-miterlimit:4;stroke-opacity:1;stroke-dasharray:none"
       d="m 108.79102,357.95459 c -9.736116,3.48391 -17.258926,2.31243 -20.487926,-7.89048 6.30746,3.34309 12.303416,0.92865 18.248036,-2.43353 5.39312,1.19842 5.58204,8.93131 2.23989,10.32401 z"
       id="path3829-9"
       inkscape:connector-curvature="0"
       sodipodi:nodetypes="cccc" />
    <path
       style="fill:#ffffff;fill-opacity:1;stroke:#000000;stroke-width:2.98624491999999990;stroke-linecap:butt;stroke-linejoin:miter;stroke-miterlimit:4;stroke-opacity:1;stroke-dasharray:none"
       d="m 84.491604,428.15431 c -5.1508,-8.93162 -11.64457,-12.88936 -20.74374,-7.19783 6.98092,1.51966 9.97798,7.22502 12.31934,13.61938 4.88872,2.5641 10.06449,-3.20565 8.4244,-6.42155 z"
       id="path3829-48"
       inkscape:connector-curvature="0"
       sodipodi:nodetypes="cccc" />
    <path
       style="fill:#ffffff;fill-opacity:1;stroke:#000000;stroke-width:2.98624491999999990;stroke-linecap:butt;stroke-linejoin:miter;stroke-miterlimit:4;stroke-opacity:1;stroke-dasharray:none"
       d="m 65.350354,454.05702 c -10.34015,-0.34972 -17.14147,3.05797 -17.07752,13.75498 4.97647,-5.10467 11.42709,-4.63331 18.12037,-3.2441 4.76556,-2.78434 2.56715,-10.20352 -1.04285,-10.51088 z"
       id="path3829-8"
       inkscape:connector-curvature="0"
       sodipodi:nodetypes="cccc" />
    <path
       style="fill:#ffffff;fill-opacity:1;stroke:#000000;stroke-width:2.98624491999999990;stroke-linecap:butt;stroke-linejoin:miter;stroke-miterlimit:4;stroke-opacity:1;stroke-dasharray:none"
       d="m 66.875754,498.63063 c -2.13585,10.07677 0.0584,17.33454 10.65377,19.12344 -4.18935,-5.76244 -2.60643,-12.00494 -0.0733,-18.32644 -1.93006,-5.15404 -9.65151,-4.28298 -10.58048,-0.797 z"
       id="path3829-2"
       inkscape:connector-curvature="0"
       sodipodi:nodetypes="cccc" />
    <path
       style="fill:#ffffff;fill-opacity:1;stroke:#000000;stroke-width:2.98624491999999990;stroke-linecap:butt;stroke-linejoin:miter;stroke-miterlimit:4;stroke-opacity:1;stroke-dasharray:none"
       d="m 118.7352,502.52808 c 0.82114,10.26612 -2.28945,17.18418 -13.0276,17.60696 4.89666,-5.1806 4.13028,-11.57354 2.43178,-18.16601 2.57761,-4.86538 10.12326,-3.01669 10.59582,0.55905 z"
       id="path3829-45"
       inkscape:connector-curvature="0"
       sodipodi:nodetypes="cccc" />
    <path
       style="fill:#ffffff;fill-opacity:1;stroke:#000000;stroke-width:2.98624491999999990;stroke-linecap:butt;stroke-linejoin:miter;stroke-miterlimit:4;stroke-opacity:1;stroke-dasharray:none"
       d="m 178.93218,614.20507 c -5.42684,-8.76819 -12.04083,-12.52337 -20.95815,-6.55347 7.02486,1.30321 10.19844,6.91326 12.738,13.23224 4.96632,2.41175 9.95973,-3.51511 8.22015,-6.67877 z"
       id="path3829-5"
       inkscape:connector-curvature="0"
       sodipodi:nodetypes="cccc" />
    <path
       style="fill:#ffffff;fill-opacity:1;stroke:#000000;stroke-width:2.98624491999999990;stroke-linecap:butt;stroke-linejoin:miter;stroke-miterlimit:4;stroke-opacity:1;stroke-dasharray:none"
       d="m 157.04311,635.22991 c -8.15205,-6.34151 -15.66529,-7.57205 -21.93947,1.11277 7.04167,-1.21059 11.97746,2.95017 16.56672,7.99513 5.49895,0.54161 8.10927,-6.74416 5.37275,-9.1079 z"
       id="path3829-1"
       inkscape:connector-curvature="0"
       sodipodi:nodetypes="cccc" />
    <path
       style="fill:#ffffff;fill-opacity:1;stroke:#000000;stroke-width:2.98624491999999990;stroke-linecap:butt;stroke-linejoin:miter;stroke-miterlimit:4;stroke-opacity:1;stroke-dasharray:none"
       d="m 154.45623,663.50309 c -9.86949,3.08982 -15.14704,8.5533 -11.51629,18.62148 2.98991,-6.46052 9.23144,-8.14925 16.00816,-9.05252 3.56555,-4.20222 -0.98436,-10.47295 -4.49187,-9.56896 z"
       id="path3829-71"
       inkscape:connector-curvature="0"
       sodipodi:nodetypes="cccc" />
    <path
       style="fill:#ffffff;fill-opacity:1;stroke:#000000;stroke-width:2.98624491999999990;stroke-linecap:butt;stroke-linejoin:miter;stroke-miterlimit:4;stroke-opacity:1;stroke-dasharray:none"
       d="m 185.53902,691.24201 c -4.69087,9.17926 -10.97549,13.45852 -20.35193,8.23187 6.89484,-1.86878 9.59858,-7.71761 11.61238,-14.22154 4.75227,-2.80663 10.21428,2.69541 8.73955,5.98967 z"
       id="path3829-15"
       inkscape:connector-curvature="0"
       sodipodi:nodetypes="cccc" />
    <path
       style="fill:#ffffff;fill-opacity:1;stroke:#000000;stroke-width:2.98624491999999990;stroke-linecap:butt;stroke-linejoin:miter;stroke-miterlimit:4;stroke-opacity:1;stroke-dasharray:none"
       d="m 215.01911,696.26503 c -4.69088,9.17926 -10.97549,13.45859 -20.35194,8.23187 6.89484,-1.86879 9.59858,-7.7176 11.61238,-14.22152 4.75227,-2.80666 10.21429,2.69537 8.73956,5.98965 z"
       id="path3829-15-2"
       inkscape:connector-curvature="0"
       sodipodi:nodetypes="cccc" />
    <path
       style="fill:#ffffff;fill-opacity:1;stroke:#000000;stroke-width:2.98624491999999990;stroke-linecap:butt;stroke-linejoin:miter;stroke-miterlimit:4;stroke-opacity:1;stroke-dasharray:none"
       d="m 415.65311,754.98728 c 0.0115,10.29865 -3.634,16.95304 -14.37244,16.53768 5.28904,-4.78308 5.02788,-11.21615 3.85307,-17.92076 2.95231,-4.64951 10.32941,-2.21848 10.51937,1.38308 z"
       id="path3829-15-7"
       inkscape:connector-curvature="0"
       sodipodi:nodetypes="cccc" />
    <path
       style="fill:#ffffff;fill-opacity:1;stroke:#000000;stroke-width:2.98624491999999990;stroke-linecap:butt;stroke-linejoin:miter;stroke-miterlimit:4;stroke-opacity:1;stroke-dasharray:none"
       d="m 449.55581,741.92217 c 1.92672,10.11851 -0.41754,17.3297 -11.04754,18.90085 4.30783,-5.67528 2.85452,-11.94893 0.45282,-18.32112 2.03635,-5.11327 9.73811,-4.084 10.59472,-0.57973 z"
       id="path3829-15-6"
       inkscape:connector-curvature="0"
       sodipodi:nodetypes="cccc" />
    <path
       style="fill:#ffffff;fill-opacity:1;stroke:#000000;stroke-width:2.98624491999999990;stroke-linecap:butt;stroke-linejoin:miter;stroke-miterlimit:4;stroke-opacity:1;stroke-dasharray:none"
       d="m 372.41883,745.34238 c -8.70068,5.57252 -12.34301,12.22846 -6.17212,20.98624 1.17149,-7.01681 6.74416,-10.28511 13.0413,-12.93625 2.32526,-4.98975 -3.72558,-9.84325 -6.86918,-8.04999 z"
       id="path3829-15-1"
       inkscape:connector-curvature="0"
       sodipodi:nodetypes="cccc" />
    <path
       style="fill:#ffffff;fill-opacity:1;stroke:#000000;stroke-width:2.98624491999999990;stroke-linecap:butt;stroke-linejoin:miter;stroke-miterlimit:4;stroke-opacity:1;stroke-dasharray:none"
       d="m 352.2885,716.47352 c -10.31976,-0.7349 -17.24451,2.41693 -17.58298,13.10884 5.16498,-4.91562 11.59339,-4.2042 18.22971,-2.56647 4.86692,-2.6048 2.94916,-10.1007 -0.64673,-10.54237 z"
       id="path3829-15-1-4"
       inkscape:connector-curvature="0"
       sodipodi:nodetypes="cccc" />
    <path
       style="fill:#ffffff;fill-opacity:1;stroke:#000000;stroke-width:2.98624491999999990;stroke-linecap:butt;stroke-linejoin:miter;stroke-miterlimit:4;stroke-opacity:1;stroke-dasharray:none"
       d="m 364.18051,682.57382 c -8.80727,-5.40409 -16.41124,-5.79904 -21.68084,3.52388 6.86369,-1.97918 12.23201,1.612 17.35416,6.12016 5.52537,-0.0676 7.30926,-7.5964 4.32668,-9.64404 z"
       id="path3829-15-1-2"
       inkscape:connector-curvature="0"
       sodipodi:nodetypes="cccc" />
    <path
       style="fill:#ae1c28;fill-opacity:1;stroke:#000000;stroke-width:2.98624492;stroke-linecap:butt;stroke-linejoin:miter;stroke-miterlimit:4;stroke-opacity:1;stroke-dasharray:none"
       d="m 185.93283,301.31273 c 10.83824,-15.39985 28.44152,-15.32248 39.63023,-0.77858 10.429,13.88074 20.85802,14.93424 31.287,10.90018 14.50604,-4.77144 21.41652,1.1397 28.41903,7.26678 -6.34691,-2.65722 -12.96767,-5.00782 -24.76888,-1.55717 -16.17995,3.47558 -32.82971,14.19953 -47.71268,-2.33574 -7.42673,-7.53417 -14.08444,-16.59928 -26.8547,-13.49547 z"
       id="path3990"
       inkscape:connector-curvature="0"
       sodipodi:nodetypes="ccccccc" />
    <path
       style="fill:#ffcc00;fill-opacity:1;stroke:#000000;stroke-width:2.98624492;stroke-linecap:butt;stroke-linejoin:miter;stroke-miterlimit:4;stroke-opacity:1;stroke-dasharray:none"
       d="m 254.10409,276.18626 c 4.85291,-0.48501 9.83948,-0.66592 9.95547,-11.92842 3.61979,-9.0608 7.13053,-18.21889 30.41947,-9.72624 23.59869,6.67137 40.19781,11.11574 74.48163,5.3219 -4.78448,7.68377 -9.60259,12.00184 -15.23674,15.64322 5.2559,1.61988 5.48961,5.98566 6.01873,10.96631 5.59225,6.60564 11.18452,12.38914 16.77679,12.84598 -2.23215,10.31852 -11.47366,10.43961 -22.67633,7.70759 6.47726,4.21857 4.77231,12.87966 3.87156,21.10413 -0.98428,8.82889 1.26882,18.19486 4.42465,27.71061 -4.67292,-0.54444 -9.51307,-0.67269 -12.16778,-6.23949 -3.08031,14.53128 -3.54113,29.06255 6.47551,43.59383 -32.36242,-9.89295 -29.6515,12.52656 -30.50484,31.6624 -7.01652,-6.42656 -8.53,-12.43172 -6.51812,-18.16695 5.38909,-11.93348 -2.92624,-18.35553 -8.60393,-19.98367 2.40276,14.79088 -6.45623,24.16104 -10.95045,26.21235 -13.34209,8.93129 -13.17601,21.04078 0.52143,36.33391 -24.17179,-0.53699 -35.72986,-13.24933 -43.80181,-29.32665 -12.62966,21.91379 -32.04625,26.04928 -53.97008,23.61702 7.64793,-4.24451 15.29586,-7.16892 22.94381,-18.42648 5.51287,-9.68494 11.50626,-17.7223 21.37946,-12.45734 -1.99392,-14.33013 -35.87549,-21.12899 -52.40576,16.60979 l -3.65015,-13.75498 c -13.77776,0.25308 -28.98405,8.32714 -39.10877,-11.41924 14.73873,4.48922 28.93461,3.57483 41.71603,-11.41923 17.37107,-20.91146 32.21889,-46.45381 64.65982,-39.70778 15.43663,0.47321 23.52119,-2.91948 28.67976,-8.3049 -14.44939,0.58996 -16.37036,-9.37237 -18.34925,-19.28591 l 7.00571,1.10109 1.10616,-6.79003 6.82134,6.79003 c 25.58243,-4.19257 10.81795,-33.82553 -6.26826,-26.05902 l -0.36873,8.07461 -4.97771,-5.50541 c -40.67214,5.75399 -31.30704,-33.18321 -17.69862,-26.79304 z"
       id="path3992"
       inkscape:connector-curvature="0"
       sodipodi:nodetypes="ccccccccccccccccccccccccccccccccccc" />
    <path
       style="fill:none;stroke:#000000;stroke-width:2.98624492;stroke-linecap:butt;stroke-linejoin:miter;stroke-miterlimit:4;stroke-opacity:1;stroke-dasharray:none"
       d="m 356.76314,273.389 c -10.54568,6.21214 -21.75297,7.9229 -30.75848,5.73347 19.65863,17.9827 -4.80483,39.39831 -23.41376,15.23168 15.03692,18.85784 7.12721,50.41451 -17.14554,50.46636"
       id="path3994"
       inkscape:connector-curvature="0"
       sodipodi:nodetypes="cccc" />
    <path
       style="fill:#ffffff;stroke:#000000;stroke-width:2.98624492;stroke-linecap:butt;stroke-linejoin:miter;stroke-miterlimit:4;stroke-opacity:1;stroke-dasharray:none"
       d="m 277.57771,273.15394 c 6.68103,-10.51611 17.82137,-9.54346 30.37446,-4.93102 -5.82513,9.74499 -14.84229,13.47569 -30.37446,4.93102 z"
       id="path3996"
       inkscape:connector-curvature="0"
       sodipodi:nodetypes="ccc" />
    <path
       transform="matrix(0.73003021,0,0,0.72667851,856.77838,744.14703)"
       sodipodi:type="arc"
       style="fill:#000000;fill-opacity:1;stroke:none"
       id="path3998"
       sodipodi:cx="-774.55359"
       sodipodi:cy="-650.46649"
       sodipodi:rx="7.4107141"
       sodipodi:ry="8.0357141"
       d="m -767.14287,-650.46649 c 0,4.438 -3.31789,8.03571 -7.41072,8.03571 -4.09282,0 -7.41071,-3.59771 -7.41071,-8.03571 0,-4.438 3.31789,-8.03572 7.41071,-8.03572 4.09283,0 7.41072,3.59772 7.41072,8.03572 z" />
    <path
       transform="matrix(0.73003021,0,0,0.72667851,856.77838,744.14703)"
       sodipodi:type="arc"
       style="fill:#ffffff;fill-opacity:1;stroke:none"
       id="path4000"
       sodipodi:cx="-776.36536"
       sodipodi:cy="-652.24286"
       sodipodi:rx="2.3359778"
       sodipodi:ry="2.3359778"
       d="m -774.02938,-652.24286 c 0,1.29013 -1.04585,2.33598 -2.33598,2.33598 -1.29012,0 -2.33597,-1.04585 -2.33597,-2.33598 0,-1.29012 1.04585,-2.33598 2.33597,-2.33598 1.29013,0 2.33598,1.04586 2.33598,2.33598 z" />
    <path
       style="fill:#ffffff;fill-opacity:1;stroke:#000000;stroke-width:2.98624492;stroke-linecap:butt;stroke-linejoin:miter;stroke-miterlimit:4;stroke-opacity:1;stroke-dasharray:none"
       d="m 154.23743,494.1428 c 0.82114,10.26612 -2.28945,17.18418 -13.0276,17.60696 4.89666,-5.1806 4.13028,-11.57354 2.43178,-18.16601 2.57761,-4.86538 10.12326,-3.01669 10.59582,0.55905 z"
       id="path3829-45-2"
       inkscape:connector-curvature="0"
       sodipodi:nodetypes="cccc" />
  </g>
</svg>
